# xmcd
#
# Track frame offsets:
#	150
#	17155
#	31527
#	43220
#	54912
#	65610
#	77952
#	91912
#	101842
#	115062
#	127137
#	137072
#
# Disc length: 1961 seconds
#
# Revision: 1
# Processed by: cddbd v1.5.2PL0 Copyright (c) Steve Scherf et al.
# Submitted via: audiograbber 1.83.01
#
DISCID=a007a70c
DTITLE=Faron Young - Country Christmas
DYEAR=1990
DGENRE=Christmas
TTITLE0=White christmas
TTITLE1=Christmas song
TTITLE2=Happy birthday Jesus
TTITLE3=Candyland
TTITLE4=Christmas in the mountains
TTITLE5=O come all ye faithful
TTITLE6=Silver bells
TTITLE7=Winter wonderland
TTITLE8=The story of silent night
TTITLE9=Baby Jesus
TTITLE10=Country christmas
TTITLE11=O little town of Bethlehem
EXTD=
EXTT0=
EXTT1=
EXTT2=
EXTT3=
EXTT4=
EXTT5=
EXTT6=
EXTT7=
EXTT8=
EXTT9=
EXTT10=
EXTT11=
PLAYORDER=
